<?xml version="1.0" encoding="utf-8" ?>
<svg baseProfile="full" height="394" version="1.1" width="316" xmlns="http://www.w3.org/2000/svg" xmlns:ev="http://www.w3.org/2001/xml-events" xmlns:xlink="http://www.w3.org/1999/xlink"><defs /><path d="M 104,0 L 103,1 L 96,1 L 95,2 L 90,2 L 89,3 L 86,3 L 85,4 L 82,4 L 81,5 L 79,5 L 78,6 L 76,6 L 75,7 L 73,7 L 72,8 L 70,8 L 69,9 L 68,9 L 67,10 L 66,10 L 65,11 L 64,11 L 63,12 L 62,12 L 61,13 L 60,13 L 59,14 L 58,14 L 57,15 L 56,15 L 54,17 L 53,17 L 52,18 L 51,18 L 48,21 L 47,21 L 45,23 L 44,23 L 38,29 L 37,29 L 30,36 L 30,37 L 25,42 L 25,43 L 22,46 L 22,47 L 20,49 L 20,50 L 18,52 L 18,53 L 17,54 L 17,55 L 15,57 L 15,58 L 14,59 L 14,60 L 13,61 L 13,62 L 12,63 L 12,64 L 11,65 L 11,66 L 10,67 L 10,69 L 9,70 L 9,71 L 8,72 L 8,73 L 7,74 L 7,77 L 6,78 L 6,80 L 5,81 L 5,83 L 4,84 L 4,87 L 3,88 L 3,92 L 2,93 L 2,98 L 1,99 L 1,111 L 0,112 L 0,281 L 1,282 L 1,293 L 2,294 L 2,299 L 3,300 L 3,303 L 4,304 L 4,308 L 5,309 L 5,311 L 6,312 L 6,314 L 7,315 L 7,317 L 8,318 L 8,320 L 9,321 L 9,322 L 10,323 L 10,324 L 11,325 L 11,327 L 12,328 L 12,329 L 13,330 L 13,331 L 15,333 L 15,334 L 16,335 L 16,336 L 17,337 L 17,338 L 19,340 L 19,341 L 21,343 L 21,344 L 23,346 L 23,347 L 28,352 L 28,353 L 41,366 L 42,366 L 46,370 L 47,370 L 50,373 L 51,373 L 53,375 L 54,375 L 55,376 L 56,376 L 58,378 L 59,378 L 60,379 L 61,379 L 62,380 L 63,380 L 64,381 L 65,381 L 66,382 L 67,382 L 68,383 L 69,383 L 70,384 L 72,384 L 73,385 L 74,385 L 75,386 L 77,386 L 78,387 L 80,387 L 81,388 L 83,388 L 84,389 L 87,389 L 88,390 L 92,390 L 93,391 L 97,391 L 98,392 L 106,392 L 107,393 L 311,393 L 312,392 L 313,392 L 315,390 L 315,333 L 314,332 L 314,331 L 313,330 L 311,330 L 310,329 L 112,329 L 111,328 L 108,328 L 107,327 L 104,327 L 103,326 L 102,326 L 101,325 L 99,325 L 98,324 L 97,324 L 95,322 L 94,322 L 92,320 L 91,320 L 88,317 L 87,317 L 81,311 L 81,310 L 77,306 L 77,305 L 75,303 L 75,302 L 74,301 L 74,300 L 73,299 L 73,298 L 72,297 L 72,296 L 71,295 L 71,294 L 70,293 L 70,291 L 69,290 L 69,287 L 68,286 L 68,280 L 67,279 L 67,216 L 69,214 L 72,214 L 73,213 L 74,214 L 75,214 L 76,213 L 78,213 L 79,214 L 80,214 L 81,213 L 97,213 L 98,214 L 100,214 L 101,213 L 102,213 L 103,214 L 105,214 L 106,213 L 107,214 L 108,213 L 111,213 L 112,214 L 115,214 L 116,213 L 127,213 L 128,214 L 130,214 L 131,213 L 132,213 L 133,214 L 134,214 L 135,215 L 135,253 L 136,254 L 136,260 L 137,261 L 137,264 L 138,265 L 138,267 L 139,268 L 139,270 L 140,271 L 140,273 L 141,274 L 141,275 L 142,276 L 142,277 L 143,278 L 143,279 L 145,281 L 145,282 L 147,284 L 147,285 L 151,289 L 151,290 L 156,295 L 157,295 L 161,299 L 162,299 L 164,301 L 165,301 L 166,302 L 167,302 L 169,304 L 171,304 L 172,305 L 173,305 L 174,306 L 176,306 L 177,307 L 179,307 L 180,308 L 183,308 L 184,309 L 314,309 L 314,308 L 315,307 L 315,277 L 314,276 L 313,276 L 312,275 L 208,275 L 207,274 L 205,274 L 204,273 L 202,273 L 201,272 L 200,272 L 198,270 L 197,270 L 188,261 L 188,260 L 187,259 L 187,258 L 186,257 L 186,256 L 185,255 L 185,252 L 184,251 L 184,193 L 186,191 L 309,191 L 310,190 L 312,190 L 315,187 L 315,129 L 313,127 L 137,127 L 136,128 L 136,129 L 135,130 L 135,148 L 133,150 L 70,150 L 67,147 L 67,111 L 68,110 L 68,105 L 69,104 L 69,102 L 70,101 L 70,99 L 71,98 L 71,97 L 72,96 L 72,95 L 73,94 L 73,93 L 74,92 L 74,91 L 76,89 L 76,88 L 78,86 L 78,85 L 89,74 L 90,74 L 92,72 L 93,72 L 95,70 L 96,70 L 97,69 L 98,69 L 99,68 L 100,68 L 101,67 L 102,67 L 103,66 L 105,66 L 106,65 L 109,65 L 110,64 L 312,64 L 313,63 L 314,63 L 315,62 L 315,2 L 313,0 Z" fill="white" /></svg>